<svg width="137" height="137" xmlns="http://www.w3.org/2000/svg" xmlns:xlink="http://www.w3.org/1999/xlink" xml:space="preserve" overflow="hidden"><defs><clipPath id="clip0"><rect x="268" y="185" width="137" height="137"/></clipPath></defs><g clip-path="url(#clip0)" transform="translate(-268 -185)"><path d="M133.845 121.473C130.315 121.61 126.833 122.347 123.55 123.653 121.364 124.557 119.046 125.102 116.686 125.266 114.326 125.102 112.008 124.557 109.822 123.653 106.539 122.347 103.057 121.61 99.526 121.473 95.9953 121.61 92.5136 122.347 89.2302 123.653 87.0444 124.557 84.7263 125.102 82.3664 125.266 80.0064 125.102 77.6883 124.557 75.5025 123.653 72.2192 122.347 68.7375 121.61 65.2067 121.473 61.6759 121.61 58.1942 122.347 54.9109 123.653 52.725 124.557 50.407 125.102 48.0471 125.266 45.6871 125.102 43.3692 124.557 41.1832 123.653 37.8999 122.347 34.4182 121.61 30.8874 121.473 27.3566 121.61 23.8749 122.347 20.5916 123.653 18.4056 124.557 16.0877 125.102 13.7277 125.266L13.7277 135.561C17.2585 135.425 20.7402 134.688 24.0235 133.382 26.2035 132.442 28.5216 131.863 30.8874 131.666 33.2532 131.863 35.5713 132.442 37.7513 133.382 41.0346 134.688 44.5163 135.425 48.0471 135.561 51.5778 135.425 55.0595 134.688 58.3428 133.382 60.5228 132.442 62.8409 131.863 65.2067 131.666 67.5667 131.83 69.8848 132.374 72.0706 133.279 75.3453 134.628 78.8286 135.4 82.3664 135.561 85.8971 135.425 89.3788 134.688 92.6622 133.382 94.8421 132.442 97.1602 131.863 99.526 131.666 101.892 131.863 104.21 132.442 106.39 133.382 109.673 134.688 113.155 135.425 116.686 135.561 120.216 135.425 123.698 134.688 126.981 133.382 129.161 132.442 131.48 131.863 133.845 131.666 136.205 131.83 138.523 132.374 140.709 133.279 143.984 134.628 147.467 135.4 151.005 135.561L151.005 125.266C148.645 125.102 146.327 124.557 144.141 123.653 140.858 122.347 137.376 121.61 133.845 121.473Z" fill="#2B7BCB" transform="matrix(1 0 0 1.17903 253.177 153.287)"/><path d="M144.141 103.061C140.858 101.755 137.376 101.018 133.845 100.882 130.315 101.018 126.833 101.755 123.55 103.061 121.364 103.966 119.046 104.51 116.686 104.674 114.326 104.51 112.008 103.966 109.822 103.061 108.629 102.595 107.409 102.205 106.167 101.894 91.8557 95.3906 84.5457 82.2977 85.5752 72.1735 86.4332 63.4393 91.6841 53.6068 101.191 52.6287 110.353 51.6051 118.744 57.8514 120.392 66.9227 120.621 68.4631 121.996 69.5687 123.55 69.4623 124.374 69.3865 125.133 68.9851 125.66 68.3469 126.17 67.7026 126.399 66.88 126.295 66.0647 123.224 43.1566 102.804 27.7643 78.9344 30.2182 65.9789 31.5566 53.8127 39.656 42.7619 54.2417 41.2861 56.1807 39.8447 58.1369 38.4033 60.0931 30.733 70.3889 23.4229 80.3415 13.7964 87.0681L13.7964 114.97C17.3271 114.833 20.8088 114.096 24.0922 112.79 26.2721 111.851 28.5902 111.271 30.956 111.075 33.3218 111.271 35.6399 111.851 37.8199 112.79 41.0816 114.088 44.5394 114.825 48.0471 114.97 51.5778 114.833 55.0595 114.096 58.3428 112.79 60.5228 111.851 62.8409 111.271 65.2067 111.075 67.5667 111.238 69.8848 111.783 72.0706 112.688 75.3453 114.036 78.8286 114.808 82.3664 114.97 85.8971 114.833 89.3788 114.096 92.6622 112.79 94.8421 111.851 97.1602 111.271 99.526 111.075 101.892 111.271 104.21 111.851 106.39 112.79 109.673 114.096 113.155 114.833 116.686 114.97 120.216 114.833 123.698 114.096 126.981 112.79 129.161 111.851 131.48 111.271 133.845 111.075 136.205 111.238 138.523 111.783 140.709 112.688 143.984 114.036 147.467 114.808 151.005 114.97L151.005 104.674C148.645 104.51 146.327 103.966 144.141 103.061Z" fill="#2B7BCB" transform="matrix(1 0 0 1.17903 253.177 153.287)"/></g></svg>